<svg width="48" height="48" viewBox="0 0 48 48" fill="none" xmlns="http://www.w3.org/2000/svg">
<g id="account_balance_wallet_FILL0_wght400_GRAD0_opsz48 1">
<path id="Vector" d="M32.6 27.2C33.4333 27.2 34.175 26.875 34.825 26.225C35.475 25.575 35.8 24.825 35.8 23.975C35.8 23.125 35.475 22.3833 34.825 21.75C34.175 21.1167 33.4333 20.8 32.6 20.8C31.7667 20.8 31.025 21.1167 30.375 21.75C29.725 22.3833 29.4 23.125 29.4 23.975C29.4 24.825 29.725 25.575 30.375 26.225C31.025 26.875 31.7667 27.2 32.6 27.2ZM9 36.35V39V9V36.35ZM9 42C8.23333 42 7.54167 41.7 6.925 41.1C6.30833 40.5 6 39.8 6 39V9C6 8.23333 6.30833 7.54167 6.925 6.925C7.54167 6.30833 8.23333 6 9 6H39C39.8 6 40.5 6.30833 41.1 6.925C41.7 7.54167 42 8.23333 42 9V15.7H39V9H9V39H39V32.35H42V39C42 39.8 41.7 40.5 41.1 41.1C40.5 41.7 39.8 42 39 42H9ZM26.9 33.35C25.7667 33.35 24.8667 33.0167 24.2 32.35C23.5333 31.6833 23.2 30.8 23.2 29.7V18.35C23.2 17.2167 23.5333 16.325 24.2 15.675C24.8667 15.025 25.7667 14.7 26.9 14.7H40.4C41.5333 14.7 42.4333 15.025 43.1 15.675C43.7667 16.325 44.1 17.2167 44.1 18.35V29.7C44.1 30.8 43.7667 31.6833 43.1 32.35C42.4333 33.0167 41.5333 33.35 40.4 33.35H26.9ZM41.1 30.35V17.7H26.2V30.35H41.1Z" fill="#F4F4F4"/>
</g>
</svg>
