<svg width="31" height="31" viewBox="0 0 31 31" fill="none" xmlns="http://www.w3.org/2000/svg">
<g id="Group 308">
<path id="Star 2" d="M18.7705 23.4954C19.4874 24.1367 20.6151 23.54 20.4882 22.5866L19.8276 17.6199C19.7763 17.2345 19.896 16.8459 20.1552 16.5561L23.4955 12.8216C24.1367 12.1047 23.54 10.977 22.5866 11.1038L17.6199 11.7645C17.2345 11.8158 16.8459 11.6961 16.5562 11.4369L12.8216 8.09662C12.1047 7.4554 10.977 8.05207 11.1038 9.0055L11.7645 13.9722C11.8158 14.3576 11.6961 14.7461 11.4369 15.0359L8.09663 18.7704C7.45541 19.4873 8.05209 20.6151 9.00551 20.4882L13.9722 19.8276C14.3576 19.7763 14.7461 19.8959 15.0359 20.1551L18.7705 23.4954Z" stroke="#F4F4F4" stroke-width="0.296029"/>
<path id="Star 1" d="M18.0797 23.0137C18.899 23.7465 20.1879 23.0646 20.0429 21.975L19.3822 17.0083C19.3367 16.6658 19.443 16.3204 19.6734 16.0628L23.0137 12.3283C23.7466 11.5089 23.0646 10.2201 21.975 10.3651L17.0083 11.0257C16.6658 11.0713 16.3204 10.9649 16.0628 10.7345L12.3283 7.39425C11.509 6.66143 10.2201 7.34334 10.3651 8.43297L11.0258 13.3996C11.0713 13.7422 10.965 14.0876 10.7346 14.3452L7.39427 18.0797C6.66145 18.899 7.34336 20.1879 8.43299 20.0429L13.3997 19.3822C13.7422 19.3367 14.0876 19.443 14.3452 19.6734L18.0797 23.0137Z" fill="#F4F4F4"/>
</g>
</svg>
